<svg width="20" height="20" viewBox="0 0 20 20" fill="none" xmlns="http://www.w3.org/2000/svg">
<path d="M3.63789 10.7371L3.63788 10.7371C3.50185 10.6011 3.31736 10.5246 3.12498 10.5246C2.93261 10.5246 2.74811 10.6011 2.61208 10.7371C2.47605 10.8731 2.39963 11.0576 2.39963 11.25C2.39963 11.4424 2.47605 11.6269 2.61208 11.7629L6.98704 16.1379C6.98706 16.1379 6.98707 16.1379 6.98708 16.1379C7.05441 16.2053 7.13435 16.2587 7.22235 16.2952L7.26064 16.2028L7.22235 16.2952C7.31036 16.3317 7.40471 16.3505 7.49998 16.3505C7.59526 16.3505 7.6896 16.3317 7.77761 16.2952C7.86561 16.2587 7.94555 16.2053 8.01288 16.1379C8.01289 16.1379 8.01291 16.1379 8.01292 16.1379L18.0129 6.13789C18.1489 6.00187 18.2253 5.81737 18.2253 5.625C18.2253 5.43262 18.1489 5.24813 18.0129 5.1121C17.8769 4.97607 17.6924 4.89965 17.5 4.89965C17.3076 4.89965 17.1231 4.97607 16.9871 5.1121L16.9871 5.1121L7.49999 14.6L3.63789 10.7371Z" fill="#1B873F" stroke="#1B873F" stroke-width="0.2"/>
</svg>
