<svg width="16" height="21" viewBox="0 0 16 21" fill="none" xmlns="http://www.w3.org/2000/svg">
<path d="M13 20.6424H3C2.33718 20.6416 1.70172 20.378 1.23303 19.9093C0.764348 19.4406 0.500724 18.8052 0.5 18.1424V3.14236C0.500724 2.47955 0.764348 1.84408 1.23303 1.3754C1.70172 0.906713 2.33718 0.643088 3 0.642365H13C13.6628 0.643088 14.2983 0.906713 14.767 1.3754C15.2357 1.84408 15.4993 2.47955 15.5 3.14236V18.1424C15.4993 18.8052 15.2357 19.4406 14.767 19.9093C14.2983 20.378 13.6628 20.6416 13 20.6424ZM3 1.89236C2.66848 1.89236 2.35054 2.02406 2.11612 2.25848C1.8817 2.4929 1.75 2.81084 1.75 3.14236V18.1424C1.75 18.4739 1.8817 18.7918 2.11612 19.0262C2.35054 19.2607 2.66848 19.3924 3 19.3924H13C13.3315 19.3924 13.6495 19.2607 13.8839 19.0262C14.1183 18.7918 14.25 18.4739 14.25 18.1424V3.14236C14.25 2.81084 14.1183 2.4929 13.8839 2.25848C13.6495 2.02406 13.3315 1.89236 13 1.89236H3Z" fill="white"/>
<path d="M13 0.642365C13.6628 0.643088 14.2983 0.906713 14.767 1.3754C15.2357 1.84408 15.4993 2.47955 15.5 3.14236V18.1424C15.4993 18.8052 15.2357 19.4406 14.767 19.9093C14.2983 20.378 13.6628 20.6416 13 20.6424H3C2.33718 20.6416 1.70172 20.378 1.23303 19.9093C0.764348 19.4406 0.500724 18.8052 0.5 18.1424V3.14236C0.500724 2.47955 0.764348 1.84408 1.23303 1.3754C1.70172 0.906713 2.33718 0.643088 3 0.642365H13ZM3 19.3924H13C13.3315 19.3924 13.6495 19.2607 13.8839 19.0262C14.1183 18.7918 14.25 18.4739 14.25 18.1424V3.14236C14.25 2.81084 14.1183 2.4929 13.8839 2.25848C13.6495 2.02406 13.3315 1.89236 13 1.89236H3C2.66848 1.89236 2.35054 2.02406 2.11612 2.25848C1.8817 2.4929 1.75 2.81084 1.75 3.14236V18.1424C1.75 18.4739 1.8817 18.7918 2.11612 19.0262C2.35054 19.2607 2.66848 19.3924 3 19.3924ZM3 18.7674C2.83424 18.7674 2.67527 18.7015 2.55806 18.5843C2.44085 18.4671 2.375 18.3081 2.375 18.1424V3.14236C2.375 2.9766 2.44085 2.81763 2.55806 2.70042C2.67527 2.58321 2.83424 2.51736 3 2.51736H13C13.1658 2.51736 13.3247 2.58321 13.4419 2.70042C13.5592 2.81763 13.625 2.9766 13.625 3.14236V18.1424C13.625 18.3081 13.5592 18.4671 13.4419 18.5843C13.3247 18.7015 13.1658 18.7674 13 18.7674H3Z" fill="white"/>
</svg>
